<?xml version="1.0" standalone="no"?>
<!DOCTYPE svg PUBLIC "-//W3C//DTD SVG 20010904//EN"
 "http://www.w3.org/TR/2001/REC-SVG-20010904/DTD/svg10.dtd">
<svg version="1.0" xmlns="http://www.w3.org/2000/svg"
 width="4725.000000pt" height="4725.000000pt" viewBox="0 0 4725.000000 4725.000000"
 preserveAspectRatio="xMidYMid meet">

<g transform="translate(0.000000,4725.000000) scale(0.100000,-0.100000)"
fill="#000000" stroke="none">
<path d="M0 23625 l0 -23625 23625 0 23625 0 0 23625 0 23625 -23625 0 -23625
0 0 -23625z m41220 3660 l0 -1595 -3135 0 -3135 0 0 -415 0 -415 3140 0 3140
0 0 -2692 c0 -1481 -3 -3095 -7 -3585 l-6 -893 -4027 0 -4028 0 -66 193 c-37
105 -282 822 -545 1592 l-479 1400 2979 3 2979 2 0 193 c0 105 3 283 7 395 l6
202 -3141 0 -3142 0 0 3605 0 3605 4730 0 4730 0 0 -1595z m-23860 -4010 l0
-5585 -1595 0 -1595 0 0 3990 0 3990 -555 0 -555 0 0 -3990 0 -3990 -1595 0
-1595 0 0 3990 0 3990 -555 0 -555 0 0 -3990 0 -3990 -1595 0 -1595 0 0 5585
0 5585 5895 0 5895 0 0 -5585z m3800 0 l0 -5585 -1595 0 -1595 0 0 5585 0
5585 1595 0 1595 0 0 -5585z m7606 5030 c107 -297 220 -614 253 -705 33 -91
134 -372 224 -625 91 -253 185 -516 210 -585 25 -69 366 -1018 757 -2110 391
-1092 743 -2070 780 -2175 90 -249 990 -2760 1321 -3683 142 -397 259 -725
259 -727 0 -3 -1852 -5 -4115 -5 -2263 0 -4115 3 -4115 7 0 10 42 138 591
1796 l460 1387 1326 0 c1056 0 1324 3 1321 13 -3 6 -342 950 -753 2097 -849
2367 -764 2134 -770 2128 -3 -3 -2580 -7180 -2652 -7385 l-15 -43 -1094 0
-1094 0 0 1672 0 1671 696 1941 c383 1068 874 2436 1090 3041 217 605 423
1179 458 1275 35 96 175 487 311 868 l249 692 2054 -2 2054 -3 194 -540z
m-20650 -11476 c94 -35 148 -90 184 -186 11 -30 20 -58 20 -63 0 -6 -24 -10
-54 -10 -53 0 -55 1 -66 35 -16 48 -54 91 -104 118 -31 16 -58 22 -116 22 -64
0 -82 -4 -128 -29 -60 -34 -96 -77 -125 -150 -18 -42 -21 -73 -21 -181 0 -111
3 -138 22 -187 46 -114 148 -177 269 -165 101 11 172 73 209 186 l16 51 54 0
c30 0 54 -4 54 -8 0 -5 -7 -33 -16 -63 -46 -155 -128 -234 -274 -265 -123 -25
-239 7 -328 90 -179 168 -166 607 21 750 105 80 255 102 383 55z m10109 6
c104 -29 178 -96 216 -195 29 -76 27 -80 -34 -80 l-54 0 -12 41 c-39 130 -224
188 -362 113 -85 -47 -130 -124 -148 -254 -12 -94 0 -210 30 -280 26 -60 95
-125 148 -140 54 -15 166 -12 209 6 82 34 141 119 149 216 l6 58 -132 0 -131
0 0 50 0 50 185 0 185 0 0 -235 0 -235 -38 0 c-39 0 -39 0 -51 54 l-12 55 -40
-39 c-104 -100 -278 -125 -416 -59 -48 23 -134 113 -163 168 -72 141 -64 384
17 533 40 74 120 142 195 167 101 32 151 33 253 6z m2960 3 c111 -28 190 -109
223 -230 l10 -38 -59 0 c-48 0 -59 3 -59 17 0 9 -11 36 -25 59 -69 117 -258
137 -372 39 -82 -70 -120 -211 -102 -373 19 -172 97 -265 235 -279 122 -13
226 57 261 176 l18 61 54 0 54 0 -7 -42 c-10 -63 -58 -159 -101 -203 -73 -72
-203 -112 -311 -95 -203 33 -309 173 -321 425 -6 125 9 210 54 301 77 157 258
230 448 182z m6581 -4 c147 -40 234 -156 270 -359 29 -161 -28 -360 -129 -451
-139 -126 -385 -131 -531 -10 -187 154 -195 556 -15 736 96 96 249 128 405 84z
m2056 -5 c199 -58 314 -327 249 -582 -51 -198 -157 -296 -348 -321 -63 -8
-174 13 -240 46 -239 119 -284 578 -76 780 69 67 202 112 303 101 25 -2 75
-13 112 -24z m2153 9 c60 -15 132 -57 170 -100 134 -147 157 -424 53 -621 -95
-178 -334 -244 -535 -147 -141 69 -221 240 -211 450 17 318 233 491 523 418z
m1982 -5 c97 -29 166 -115 175 -218 l3 -40 -51 -3 -51 -3 -7 40 c-13 85 -95
141 -206 141 -120 0 -190 -55 -190 -148 0 -85 17 -96 221 -147 176 -43 210
-58 254 -106 87 -97 67 -286 -39 -358 -92 -64 -271 -85 -386 -46 -104 35 -190
151 -190 257 0 27 1 28 54 28 l53 0 6 -40 c8 -61 41 -105 99 -134 107 -54 293
-24 332 53 23 44 21 113 -5 145 -31 40 -70 56 -237 97 -174 42 -219 67 -252
133 -37 78 -18 207 41 279 71 87 225 115 376 70z m1391 1 c96 -27 161 -107
177 -217 l7 -48 -53 3 c-51 3 -54 4 -60 35 -18 92 -90 141 -206 142 -118 2
-178 -43 -190 -138 -5 -47 -4 -52 28 -84 31 -31 50 -38 189 -71 163 -39 235
-70 267 -114 72 -98 51 -277 -39 -345 -101 -77 -313 -95 -427 -37 -88 44 -142
122 -157 223 l-6 47 56 0 c51 0 56 -2 56 -22 1 -37 35 -102 69 -131 40 -33 89
-47 171 -47 89 0 139 16 177 57 30 31 33 41 33 93 0 53 -3 60 -33 87 -43 38
-67 47 -220 83 -70 16 -145 39 -166 49 -109 56 -139 185 -75 319 58 120 220
167 402 116z m1852 -1 c98 -27 180 -137 180 -240 0 -23 -3 -24 -52 -21 -50 3
-53 4 -59 35 -19 93 -90 141 -209 142 -117 2 -190 -57 -190 -152 0 -31 7 -46
33 -72 28 -28 50 -36 187 -69 211 -51 267 -84 298 -175 16 -44 15 -133 0 -185
-20 -65 -83 -121 -165 -145 -98 -28 -151 -33 -228 -21 -150 24 -241 112 -261
253 l-6 47 56 0 c51 0 56 -2 56 -22 1 -37 35 -102 69 -131 44 -37 102 -50 197
-45 128 7 184 51 186 146 2 91 -44 122 -251 171 -149 35 -196 56 -234 101 -58
68 -59 189 -3 285 63 106 224 147 396 98z m3829 1 c39 -11 65 -28 100 -62 45
-46 61 -80 76 -164 l7 -38 -55 0 -54 0 -7 39 c-13 85 -95 141 -206 141 -76 0
-140 -25 -165 -64 -40 -60 -27 -154 25 -181 15 -8 92 -30 171 -50 175 -43 210
-58 253 -105 45 -50 60 -98 54 -181 -6 -81 -41 -147 -96 -184 -88 -57 -260
-76 -376 -41 -84 25 -156 98 -179 182 -28 99 -26 104 37 104 l53 0 6 -41 c8
-59 44 -106 104 -135 47 -23 62 -26 140 -22 142 6 203 50 203 149 0 89 -46
120 -249 168 -185 44 -231 71 -266 153 -44 106 16 268 119 317 86 42 190 47
305 15z m-35239 -286 c51 -156 103 -319 117 -363 22 -69 43 -114 43 -92 0 3
52 169 115 367 63 198 115 363 115 365 0 3 38 5 85 5 l85 0 0 -440 0 -440 -55
0 -55 0 -2 368 -3 367 -68 -210 c-38 -115 -91 -281 -119 -367 l-51 -158 -56 0
-57 0 -115 360 -114 360 -3 -360 -2 -360 -55 0 -55 0 0 440 0 440 80 0 79 0
91 -282z m1466 -158 l151 -440 -62 0 -61 0 -40 123 -40 122 -174 0 -174 0 -40
-122 -40 -123 -59 0 c-43 0 -58 3 -54 13 2 6 73 204 157 440 l153 427 66 0 66
0 151 -440z m1424 260 l0 -180 225 0 225 0 0 180 0 180 55 0 55 0 0 -440 0
-440 -55 0 -55 0 0 205 0 205 -225 0 -225 0 0 -205 0 -205 -55 0 -55 0 0 440
0 440 55 0 55 0 0 -180z m990 -260 l0 -440 -55 0 -55 0 0 440 0 440 55 0 55 0
0 -440z m705 83 l210 -358 3 358 2 357 55 0 55 0 0 -440 0 -441 -67 3 -67 3
-211 350 -210 350 -3 -352 -2 -353 -55 0 -55 0 0 440 0 440 68 0 67 0 210
-357z m1255 307 l0 -50 -250 0 -250 0 0 -140 0 -140 230 0 230 0 0 -50 0 -50
-230 0 -230 0 0 -150 0 -150 255 0 255 0 0 -50 0 -50 -310 0 -310 0 0 440 0
440 305 0 305 0 0 -50z m890 -390 l0 -440 -55 0 -55 0 0 440 0 440 55 0 55 0
0 -440z m705 82 l210 -357 3 358 2 357 55 0 55 0 0 -440 0 -440 -67 0 -68 1
-210 351 -210 352 -3 -352 -2 -352 -55 0 -55 0 0 440 0 440 68 0 67 0 210
-358z m1325 308 l0 -50 -140 0 -140 0 0 -390 0 -390 -60 0 -60 0 0 390 0 390
-140 0 -140 0 0 50 0 50 340 0 340 0 0 -50z m790 0 l0 -50 -250 0 -250 0 0
-140 0 -140 230 0 230 0 0 -50 0 -50 -230 0 -230 0 0 -150 0 -150 255 0 255 0
0 -50 0 -50 -310 0 -310 0 0 440 0 440 305 0 305 0 0 -50z m422 -337 l3 -388
213 -3 212 -2 0 -50 0 -50 -270 0 -270 0 0 440 0 440 55 0 55 0 2 -387z m798
-3 l0 -390 215 0 215 0 0 -50 0 -50 -275 0 -275 0 0 440 0 440 60 0 60 0 0
-390z m790 -50 l0 -440 -55 0 -55 0 0 440 0 440 55 0 55 0 0 -440z m2030 390
l0 -50 -250 0 -250 0 0 -140 0 -140 230 0 230 0 0 -50 0 -50 -230 0 -230 0 0
-150 0 -150 255 0 255 0 0 -50 0 -50 -315 0 -315 0 0 440 0 440 310 0 310 0 0
-50z m655 -308 l210 -357 3 358 2 357 55 0 55 0 0 -440 0 -440 -67 0 -68 1
-210 351 -210 352 -3 -352 -2 -352 -55 0 -55 0 0 440 0 440 68 0 67 0 210
-358z m2245 308 l0 -50 -250 0 -250 0 0 -140 0 -140 230 0 230 0 0 -50 0 -50
-230 0 -230 0 0 -150 0 -150 255 0 255 0 0 -50 0 -50 -310 0 -310 0 0 440 0
440 305 0 305 0 0 -50z m1163 36 c69 -28 115 -119 103 -199 -10 -60 -40 -111
-96 -159 l-51 -45 71 -89 c40 -49 75 -90 79 -92 8 -3 31 78 31 108 0 17 7 20
50 20 41 0 50 -3 50 -17 0 -23 -23 -105 -46 -164 l-17 -46 72 -89 71 -89 -66
-3 c-58 -3 -68 0 -81 18 -8 12 -25 33 -38 48 l-24 27 -39 -38 c-100 -98 -295
-103 -388 -11 -39 39 -64 114 -64 189 0 91 58 176 166 241 16 10 17 15 7 30
-61 92 -68 109 -68 174 0 85 31 144 94 177 51 27 133 31 184 9z m1485 -73 c44
-124 272 -787 272 -791 0 -1 -28 -2 -62 0 l-62 3 -38 123 -39 122 -172 0 -173
0 -23 -72 c-13 -40 -32 -97 -43 -125 l-19 -53 -55 0 c-30 0 -54 4 -54 9 0 9
246 703 301 849 8 20 15 22 72 22 l64 0 31 -87z m564 -236 l3 -323 25 -49 c21
-39 37 -55 79 -77 115 -60 246 -23 304 86 21 39 22 53 25 364 l3 322 55 0 54
0 0 -314 c0 -289 -2 -319 -21 -381 -40 -131 -152 -206 -309 -208 -144 -2 -252
57 -301 165 -24 52 -24 59 -27 396 l-3 342 55 0 55 0 3 -323z m1558 273 l0
-50 -140 0 -140 0 0 -390 0 -390 -60 0 -60 0 0 390 0 390 -140 0 -140 0 0 50
0 50 340 0 340 0 0 -50z m1576 -305 l209 -356 3 356 2 355 55 0 55 0 0 -440 0
-440 -64 0 -65 0 -202 338 c-111 185 -208 344 -215 352 -12 12 -14 -40 -14
-338 l0 -352 -55 0 -55 0 0 440 0 440 69 0 68 0 209 -355z m1929 148 c37 -115
90 -281 118 -370 29 -90 54 -163 57 -163 3 0 32 82 64 183 31 100 84 266 117
370 l60 187 80 0 79 0 0 -440 0 -440 -56 0 -57 0 5 366 c3 277 2 360 -7 342
-6 -13 -60 -177 -120 -365 l-109 -343 -57 0 -57 0 -52 163 c-152 476 -181 567
-185 567 -1 0 -1 -164 3 -365 l5 -365 -61 0 -62 0 0 440 0 440 84 0 84 0 67
-207z m2057 -110 c4 -354 8 -375 74 -432 96 -84 272 -57 334 51 l25 43 3 328
3 327 60 0 61 0 -4 -322 c-5 -349 -8 -373 -65 -460 -88 -133 -346 -163 -491
-58 -27 20 -51 50 -74 97 l-33 68 -3 337 -3 338 54 0 55 0 4 -317z m3451 106
c105 -185 120 -208 131 -192 7 10 61 105 120 211 l108 192 64 0 c35 0 64 -3
64 -6 0 -3 -70 -122 -155 -264 l-155 -258 0 -176 0 -176 -55 0 -55 0 0 173 0
172 -141 235 c-77 129 -150 250 -161 268 l-20 32 69 0 68 -1 118 -210z m2277
161 l0 -50 -140 0 -140 0 0 -390 0 -390 -60 0 -60 0 0 390 0 390 -140 0 -140
0 0 50 0 50 340 0 340 0 0 -50z m790 0 l0 -50 -250 0 -250 0 0 -140 0 -140
230 0 230 0 0 -50 0 -50 -230 0 -230 0 0 -150 0 -150 255 0 255 0 0 -50 0 -50
-310 0 -310 0 0 440 0 440 305 0 305 0 0 -50z m589 -307 c63 -197 118 -365
122 -373 10 -19 -4 -56 132 370 l113 355 82 3 82 3 0 -441 0 -440 -55 0 -55 0
-2 364 -3 364 -115 -362 -116 -361 -59 0 -58 0 -23 70 c-12 39 -52 165 -89
280 -36 116 -79 248 -95 295 l-28 85 -1 -367 -1 -368 -55 0 -55 0 0 440 0 440
83 0 82 0 114 -357z"/>
<path d="M27542 16731 c-141 -49 -222 -223 -192 -413 29 -187 127 -283 290
-282 64 0 83 4 129 29 121 66 182 233 152 411 -24 137 -95 227 -204 259 -66
20 -110 18 -175 -4z"/>
<path d="M29615 16741 c-136 -36 -212 -145 -222 -322 -12 -189 63 -329 198
-372 108 -35 205 -12 285 67 74 74 98 155 92 300 -7 156 -56 249 -160 302 -52
26 -144 38 -193 25z"/>
<path d="M31769 16734 c-142 -43 -229 -226 -199 -416 29 -187 127 -283 290
-283 66 0 83 5 130 31 97 54 144 141 157 286 12 133 -42 282 -121 340 -75 54
-169 70 -257 42z"/>
<path d="M7025 16678 c-20 -55 -125 -360 -125 -364 0 -2 59 -4 131 -4 101 0
130 3 126 13 -2 6 -30 92 -61 190 -31 97 -59 177 -62 177 -2 0 -7 -6 -9 -12z"/>
<path d="M23290 16712 c-40 -41 -41 -91 -2 -153 46 -72 54 -75 97 -38 45 40
65 78 65 123 0 49 -34 86 -87 93 -37 5 -45 2 -73 -25z"/>
<path d="M23236 16310 c-63 -58 -83 -105 -72 -166 14 -74 112 -135 189 -118
62 13 137 62 137 90 0 14 -171 236 -186 241 -6 2 -37 -19 -68 -47z"/>
<path d="M24759 16503 l-65 -188 124 -3 c69 -1 127 -1 129 2 6 6 -110 376
-117 376 -4 0 -36 -84 -71 -187z"/>
</g>
</svg>
